<?xml version="1.0" standalone="no"?>
<!DOCTYPE svg PUBLIC "-//W3C//DTD SVG 20010904//EN"
 "http://www.w3.org/TR/2001/REC-SVG-20010904/DTD/svg10.dtd">
<svg version="1.0" xmlns="http://www.w3.org/2000/svg"
 width="32.000000pt" height="32.000000pt" viewBox="0 0 32.000000 32.000000"
 preserveAspectRatio="xMidYMid meet">

<g transform="translate(0.000000,32.000000) scale(0.100000,-0.100000)"
fill="#000000" stroke="none">
<path d="M255 282 c-16 -8 -31 -19 -33 -24 -5 -13 -40 -10 -44 4 -3 8 -12 1
-22 -15 -13 -19 -27 -27 -46 -27 -20 0 -31 -6 -35 -20 -4 -11 -15 -20 -26 -20
-11 0 -18 -4 -14 -9 3 -5 1 -12 -5 -16 -18 -11 -10 -44 15 -61 14 -9 22 -21
18 -27 -3 -6 -1 -7 5 -3 12 7 35 -28 25 -38 -4 -4 13 -4 37 0 25 4 47 11 48
16 2 4 15 8 28 8 13 0 24 5 24 12 0 6 3 8 6 5 11 -10 46 14 41 28 -3 7 -2 16
3 21 4 5 4 20 -1 33 -7 17 -15 22 -32 18 -12 -2 -32 -2 -44 2 l-22 6 21 34
c22 34 22 34 36 13 16 -25 47 -30 39 -8 -3 8 1 20 9 27 11 9 12 14 3 20 -10 6
-10 11 0 23 16 19 6 19 -34 -2z"/>
</g>
</svg>
